<svg width="200" height="200" viewBox="0 0 200 200" fill="none" xmlns="http://www.w3.org/2000/svg">
<rect width="200" height="200" fill="#E3E8F0"/>
<path d="M133.877 101.527C132.082 99.4988 130.388 97.5829 128.912 95.7109C125.852 91.827 123.877 86.8339 121.966 82.006C118.026 72.0464 113.953 61.7467 100.318 61.7467C87.0632 61.7467 81.3444 74.2716 76.2991 85.3233C74.5684 89.1138 72.9337 92.6937 71.107 95.5456C69.0243 98.7975 66.0656 101.928 63.2029 104.957C59.3268 109.057 55.3201 113.297 53.2428 118.064C50.8134 123.639 51.3588 129.162 54.9095 134.947C58.2762 140.432 62.8042 143.397 68.7523 144.009C69.5683 144.093 70.395 144.132 71.2297 144.132C75.6017 144.132 80.2084 143.084 84.6858 142.065C86.7885 141.587 88.9645 141.092 91.0579 140.721L92.2966 140.501C99.194 139.271 99.7567 139.171 107.175 140.511C109.262 140.888 111.458 141.393 113.581 141.884C124.378 144.373 136.616 147.195 144.133 134.948C147.691 129.152 147.963 123.174 144.965 116.673C142.456 111.221 138.094 106.293 133.877 101.527ZM141.233 133.163C134.997 143.321 124.969 141.009 114.35 138.562C112.187 138.063 109.951 137.547 107.785 137.156C99.7633 135.707 98.846 135.871 91.7019 137.146L90.4672 137.366C88.2925 137.751 86.0765 138.255 83.9338 138.743C78.6351 139.948 73.631 141.085 69.1043 140.62C64.2162 140.117 60.6295 137.748 57.8162 133.164C51.2854 122.526 57.9575 115.469 65.6816 107.297C68.6523 104.155 71.7243 100.904 73.979 97.3829C75.935 94.3283 77.6191 90.6404 79.4004 86.7379C84.2445 76.1262 89.2539 65.1532 100.319 65.1532C111.638 65.1532 114.957 73.5436 118.8 83.2593C120.8 88.3152 122.868 93.5443 126.237 97.8202C127.773 99.7695 129.498 101.72 131.326 103.785C139.436 112.949 147.824 122.427 141.233 133.163ZM116.357 53.6336C123.781 53.6336 128.04 48.7804 128.04 40.3194C128.04 31.4183 123.148 21.5 116.128 21.5C109.107 21.5 104.215 31.4183 104.215 40.3194C104.215 44.7246 105.433 48.1445 107.835 50.4844C109.949 52.5457 112.895 53.6336 116.357 53.6336ZM116.126 24.9066C120.418 24.9066 124.632 32.541 124.632 40.3194C124.632 46.8938 121.848 50.2271 116.356 50.2271C113.093 50.2271 107.621 48.9404 107.621 40.3194C107.621 32.541 111.834 24.9066 116.126 24.9066ZM83.8738 53.6336C87.3352 53.6336 90.2819 52.5443 92.3966 50.4844C94.7979 48.1445 96.0166 44.7246 96.0166 40.3194C96.0166 31.4183 91.1246 21.5 84.1045 21.5C77.0844 21.5 72.1923 31.4183 72.1923 40.3194C72.1923 48.7804 76.4497 53.6336 83.8738 53.6336ZM84.1045 24.9066C88.3965 24.9066 92.6099 32.541 92.6099 40.3194C92.6099 48.9404 87.1365 50.2271 83.8751 50.2271C78.3831 50.2271 75.599 46.8938 75.599 40.3194C75.599 32.541 79.8111 24.9066 84.1045 24.9066ZM144.319 52.2843C137.298 52.2843 132.406 62.2027 132.406 71.1037C132.406 75.5089 133.624 78.9288 136.026 81.2687C138.14 83.3287 141.088 84.418 144.549 84.418C151.973 84.418 156.232 79.5648 156.232 71.1037C156.231 62.2027 151.339 52.2843 144.319 52.2843ZM144.548 81.0114C141.285 81.0114 135.813 79.7248 135.813 71.1037C135.813 63.3253 140.026 55.6909 144.319 55.6909C148.611 55.6909 152.824 63.3253 152.824 71.1037C152.824 77.6782 150.04 81.0114 144.548 81.0114ZM67.8243 71.1037C67.8243 62.2027 62.9322 52.2843 55.9121 52.2843C48.8921 52.2843 44 62.2027 44 71.1037C44 75.5089 45.2173 78.9288 47.62 81.2687C49.7334 83.3287 52.6814 84.418 56.1428 84.418C63.5656 84.418 67.8243 79.5648 67.8243 71.1037ZM47.4067 71.1037C47.4067 63.3253 51.6201 55.6909 55.9121 55.6909C60.2042 55.6909 64.4176 63.3253 64.4176 71.1037C64.4176 77.6782 61.6335 81.0114 56.1415 81.0114C52.8788 81.0114 47.4067 79.7248 47.4067 71.1037Z" fill="#414754"/>
<path d="M113.977 106C114.1 107.273 115.176 108.271 116.48 108.271C117.865 108.271 118.995 107.142 118.995 105.755C118.995 104.37 117.866 103.239 116.48 103.239C115.327 103.239 114.353 104.023 114.058 105.086L105.984 105.088V101.118H108.511C108.662 101.118 108.804 101.04 108.89 100.914L111.86 96.4831H114.008C114.224 97.6534 115.251 98.5419 116.481 98.5419C117.866 98.5419 118.997 97.413 118.997 96.0261C118.997 94.6408 117.868 93.5102 116.481 93.5102C115.251 93.5102 114.224 94.3987 114.008 95.5691H111.615C111.464 95.5691 111.322 95.6471 111.236 95.7729L108.266 100.204H105.983L105.984 99.5562C105.984 98.2521 104.924 97.1916 103.62 97.1916H100.457L102.699 91.1583H105.878C106.094 92.3286 107.121 93.2171 108.352 93.2171C109.737 93.2171 110.867 92.0882 110.867 90.7013C110.867 89.316 109.738 88.1854 108.352 88.1854C107.121 88.1854 106.094 89.0739 105.878 90.2443H102.382C102.191 90.2443 102.019 90.3621 101.954 90.542L99.4846 97.1901L98.0869 97.1917C98.0869 95.4227 98.0821 93.6122 98.0821 91.738C98.0821 89.2715 96.2403 87.2459 93.7982 87.0217C91.3737 86.7972 88.9681 88.3385 88.1787 90.5678C87.2984 90.6824 86.4786 91.2238 85.9867 92.0757C85.4454 93.0056 85.3627 94.1711 85.7463 95.1743C84.3152 95.66 83.1419 96.7634 82.5593 98.2523C81.8254 100.131 82.217 102.284 83.5208 103.776C82.693 104.497 82.1024 105.464 81.8413 106.548C81.5516 107.747 81.6822 108.999 82.1916 110.094C81.5484 111.09 81.3399 112.316 81.6249 113.502C81.9464 114.847 82.8315 115.903 84.0207 116.392C84.0255 117.644 84.5508 118.843 85.4709 119.645C86.4038 120.465 87.6391 120.766 88.8092 120.497C88.9317 121.602 89.3839 122.551 90.1416 123.269C90.9805 124.064 92.1426 124.5 93.4098 124.5C95.9982 124.5 98.1045 122.185 98.1045 119.339V113.886H99.4863L101.955 120.534C102.021 120.714 102.191 120.832 102.384 120.832H105.879C106.096 122.002 107.123 122.89 108.353 122.89C109.738 122.89 110.868 121.761 110.868 120.375C110.868 118.989 109.74 117.859 108.353 117.859C107.123 117.859 106.096 118.747 105.879 119.918H102.7L100.459 113.884H103.622C104.926 113.884 105.986 112.824 105.986 111.52V110.876H108.269L111.239 115.308C111.325 115.433 111.467 115.511 111.618 115.511H114.011C114.227 116.682 115.254 117.57 116.485 117.57C117.87 117.57 119 116.441 119 115.054C119 113.669 117.871 112.539 116.485 112.539C115.254 112.539 114.227 113.427 114.011 114.597H111.863L108.887 110.171C108.801 110.045 108.659 109.967 108.508 109.967H105.981V105.998H113.977L113.977 106ZM116.478 104.15C117.363 104.15 118.08 104.868 118.08 105.752C118.08 106.637 117.362 107.354 116.478 107.354C115.593 107.354 114.877 106.636 114.877 105.752C114.877 104.871 115.595 104.15 116.478 104.15ZM116.478 94.4244C117.363 94.4244 118.08 95.1425 118.08 96.0262C118.08 96.9116 117.362 97.6281 116.478 97.6281C115.593 97.6281 114.877 96.91 114.877 96.0262C114.877 95.1457 115.595 94.4244 116.478 94.4244ZM108.353 89.1044C109.238 89.1044 109.954 89.8225 109.954 90.7062C109.954 91.5916 109.236 92.3081 108.353 92.3081C107.468 92.3081 106.751 91.59 106.751 90.7062C106.751 89.8225 107.468 89.1044 108.353 89.1044ZM108.353 118.775C109.238 118.775 109.954 119.494 109.954 120.377C109.954 121.263 109.236 121.979 108.353 121.979C107.468 121.979 106.751 121.261 106.751 120.377C106.751 119.497 107.468 118.775 108.353 118.775ZM98.0912 100.636H101.856C102.235 100.636 102.541 100.942 102.541 101.321V109.758C102.541 110.137 102.235 110.443 101.856 110.443H98.0991C98.0991 108.475 98.0912 101.997 98.0912 100.636ZM93.4127 115.099C95.495 115.099 97.1903 117.003 97.1903 119.342C97.1903 121.681 95.4949 123.586 93.4127 123.586C91.2239 123.586 89.6924 122.062 89.6924 119.88C89.6924 119.729 89.6144 119.587 89.4887 119.501C89.4107 119.452 89.3263 119.423 89.2356 119.423C89.1751 119.423 89.1178 119.436 89.0604 119.46C88.0543 119.88 86.9082 119.688 86.0772 118.958C85.286 118.266 84.8673 117.202 84.9485 116.11C84.9645 115.898 84.8307 115.702 84.627 115.637C83.5795 115.315 82.7931 114.438 82.5161 113.288C82.3283 112.509 82.4094 111.707 82.7326 111.009C83.5891 112.18 84.8801 112.941 86.3033 113.108C86.5564 113.137 86.7808 112.957 86.8127 112.708C86.8413 112.455 86.6614 112.231 86.4131 112.199C85.2112 112.056 84.1223 111.396 83.4171 110.385C82.6832 109.334 82.4397 108.013 82.7405 106.761C82.9936 105.718 83.6081 104.804 84.4773 104.193C84.5919 104.115 84.6604 103.989 84.6683 103.85C84.6763 103.712 84.6237 103.577 84.525 103.484C83.2006 102.253 82.7564 100.28 83.4203 98.58C84.0762 96.8969 85.6458 95.8125 87.4096 95.8125C89.7211 95.8125 91.6076 97.6676 91.7046 100.032C91.7173 100.285 91.9243 100.477 92.1822 100.472C92.4353 100.459 92.6311 100.247 92.6215 99.9941C92.5069 97.1359 90.2178 94.8938 87.4129 94.8938C87.1566 94.8938 86.9035 94.9145 86.6583 94.9463C86.324 94.1757 86.3686 93.2553 86.792 92.5244C87.1836 91.8477 87.8268 91.456 88.5081 91.4481H88.5606C88.6943 91.4528 88.8297 91.4688 88.9682 91.5006C89.8899 91.7251 90.5744 92.6375 90.6269 93.7187C90.6397 93.9719 90.8514 94.1629 91.1077 94.1502C91.3608 94.1375 91.5518 93.9225 91.5391 93.6693C91.4611 92.1853 90.4916 90.9258 89.1799 90.6121C89.1719 90.6073 89.1639 90.6073 89.1512 90.6041C89.893 88.8956 91.8002 87.7459 93.7233 87.9227C95.6909 88.1026 97.1746 89.7411 97.1746 91.7299C97.1746 93.491 97.1746 95.1947 97.1794 96.8571C96.5187 96.1724 95.7323 95.6421 94.8854 95.3364C94.6498 95.2504 94.3839 95.373 94.298 95.6103C94.212 95.8459 94.3346 96.1119 94.5718 96.1978C95.5986 96.5689 96.5203 97.3188 97.1793 98.314C97.1793 100.483 97.1921 112.173 97.1953 116.282C96.3388 115.006 94.9666 114.17 93.4177 114.17C93.1646 114.17 92.9608 114.374 92.9608 114.627C92.956 114.892 93.1596 115.099 93.4127 115.099ZM105.067 111.529C105.067 112.328 104.419 112.976 103.62 112.976L98.1027 112.975V111.36H101.86C102.745 111.36 103.461 110.642 103.461 109.758V101.32C103.461 100.435 102.743 99.7186 101.86 99.7186H98.0947V98.104H103.628C104.427 98.104 105.075 98.7521 105.075 99.5514L105.077 111.529L105.067 111.529ZM116.478 113.455C117.363 113.455 118.08 114.174 118.08 115.057C118.08 115.943 117.362 116.659 116.478 116.659C115.593 116.659 114.877 115.941 114.877 115.057C114.877 114.174 115.595 113.455 116.478 113.455ZM87.2505 109.204C87.0785 109.204 86.9034 109.191 86.7283 109.167C86.48 109.131 86.3049 108.898 86.3415 108.65C86.3781 108.401 86.6105 108.226 86.8589 108.263C88.0862 108.443 89.2595 107.798 89.9106 106.64C88.9809 106.319 88.1833 105.637 87.6612 104.709C86.948 103.433 86.8462 101.85 87.3922 100.481C87.4861 100.245 87.7504 100.131 87.9875 100.225C88.2231 100.319 88.3378 100.583 88.2438 100.82C87.7997 101.937 87.8809 103.225 88.4635 104.264C88.957 105.153 89.7307 105.728 90.6445 105.89C91.4102 106.024 92.1886 105.838 92.8413 105.357C93.0451 105.206 93.33 105.25 93.4812 105.454C93.6325 105.658 93.5879 105.943 93.3841 106.094C92.6295 106.653 91.7413 106.909 90.845 106.839C90.1318 108.291 88.7341 109.204 87.2505 109.204ZM92.7774 112.506C91.5102 112.828 90.536 114.03 90.337 115.482C91.2905 116.02 92.061 116.933 92.4686 118.075C92.5545 118.31 92.4272 118.576 92.1916 118.657C92.1422 118.673 92.0897 118.686 92.0372 118.686C91.8493 118.686 91.6742 118.568 91.6057 118.385C91.0725 116.893 89.7273 115.861 88.3216 115.861H88.293H88.2882C88.0399 115.861 87.8313 115.657 87.8313 115.409C87.8265 115.156 88.0303 114.949 88.2834 114.949C88.691 114.944 89.0858 115.001 89.4646 115.116C89.783 113.392 90.969 112.027 92.545 111.627C92.7901 111.567 93.0384 111.713 93.099 111.957C93.1722 112.196 93.021 112.446 92.7774 112.506Z" fill="#414754"/>
<path d="M28.3766 181V167.08H33.5566C34.5699 167.08 35.5032 167.333 36.3566 167.84C37.2232 168.347 37.9099 169.033 38.4166 169.9C38.9232 170.753 39.1766 171.687 39.1766 172.7V175.38C39.1766 176.393 38.9232 177.333 38.4166 178.2C37.9099 179.053 37.2232 179.733 36.3566 180.24C35.5032 180.747 34.5699 181 33.5566 181H28.3766ZM47.8013 167.08H48.5813L54.3013 181H53.5013L51.6213 176.4H44.7613L42.8613 181H42.0813L47.8013 167.08ZM45.0613 175.68H51.3213L48.1813 168.04L45.0613 175.68ZM68.6059 167.08V167.82H63.3459V181H62.6259V167.82H57.3659V167.08H68.6059ZM77.4106 167.08H78.1906L83.9106 181H83.1106L81.2306 176.4H74.3706L72.4706 181H71.6906L77.4106 167.08ZM74.6706 175.68H80.9306L77.7906 168.04L74.6706 175.68ZM86.9753 167.06H87.7753L92.6353 175.66L97.4753 167.06H98.2153V180.98H86.9753V167.06ZM87.7153 180.26H97.4753V168.56L92.9753 176.48H92.2753L87.7153 168.44V180.26ZM107.02 167.08H107.8L113.52 181H112.72L110.84 176.4H103.98L102.08 181H101.3L107.02 167.08ZM104.28 175.68H110.54L107.4 168.04L104.28 175.68ZM127.825 167.08V167.82H122.565V181H121.845V167.82H116.585V167.08H127.825ZM131.649 181V167.08H132.389V173.66H141.629V167.08H142.369V181H141.629V174.4H132.389V181H131.649ZM146.194 167.08H146.934V175.68C146.934 176.56 147.154 177.373 147.594 178.12C148.034 178.867 148.627 179.46 149.374 179.9C150.121 180.34 150.934 180.56 151.814 180.56C152.694 180.56 153.507 180.34 154.254 179.9C155.001 179.46 155.594 178.867 156.034 178.12C156.474 177.373 156.694 176.56 156.694 175.68V167.08H157.434V175.68C157.434 176.693 157.181 177.633 156.674 178.5C156.167 179.353 155.481 180.033 154.614 180.54C153.761 181.047 152.827 181.3 151.814 181.3C150.801 181.3 149.861 181.047 148.994 180.54C148.141 180.033 147.461 179.353 146.954 178.5C146.447 177.633 146.194 176.693 146.194 175.68V167.08ZM169.639 167.54C170.439 167.913 171.065 168.467 171.519 169.2C171.985 169.933 172.219 170.747 172.219 171.64C172.219 172.68 171.899 173.613 171.259 174.44C170.632 175.253 169.825 175.793 168.839 176.06L172.379 181H171.499L168.079 176.2L167.439 176.22H162.419V181H161.679V167.08H166.979C167.565 167.08 168.065 167.12 168.479 167.2C168.905 167.267 169.292 167.38 169.639 167.54ZM167.639 175.48C168.332 175.48 168.972 175.307 169.559 174.96C170.145 174.613 170.612 174.147 170.959 173.56C171.305 172.973 171.479 172.333 171.479 171.64C171.479 170.867 171.272 170.167 170.859 169.54C170.459 168.913 169.899 168.447 169.179 168.14C168.659 167.927 167.925 167.82 166.979 167.82H162.419V175.48H167.639Z" fill="#414754"/>
</svg>
